<?xml version="1.0" encoding="UTF-8" standalone="no"?>
<svg
   width="150px"
   height="150px"
   viewBox="0 0 96 96"
   version="1.1"
   id="svg8"
   xmlns:xlink="http://www.w3.org/1999/xlink"
   xmlns="http://www.w3.org/2000/svg"
   xmlns:svg="http://www.w3.org/2000/svg"
   xmlns:rdf="http://www.w3.org/1999/02/22-rdf-syntax-ns#"
   xmlns:cc="http://creativecommons.org/ns#"
   xmlns:dc="http://purl.org/dc/elements/1.1/">
  <defs
     id="defs2">
    <linearGradient
       id="linearGradient1285">
      <stop
         style="stop-color:#ffffff;stop-opacity:1;"
         offset="0"
         id="stop1283" />
    </linearGradient>
    <linearGradient
       xlink:href="#linearGradient1285"
       id="linearGradient1287"
       x1="86.986099"
       y1="90.381439"
       x2="152.51767"
       y2="90.381439"
       gradientUnits="userSpaceOnUse" />
    <filter
       style="color-interpolation-filters:sRGB"
       id="filter2949"
       x="-0.10629625"
       y="-0.10730813"
       width="1.1942807"
       height="1.2093191">
      <feFlood
         flood-opacity="0.498039"
         flood-color="rgb(0,0,0)"
         result="flood"
         id="feFlood2939" />
      <feComposite
         in="flood"
         in2="SourceGraphic"
         operator="in"
         result="composite1"
         id="feComposite2941" />
      <feGaussianBlur
         in="composite1"
         stdDeviation="2.4024"
         result="blur"
         id="feGaussianBlur2943" />
      <feOffset
         dx="-1.2"
         dy="-0.299401"
         result="offset"
         id="feOffset2945" />
      <feComposite
         in="SourceGraphic"
         in2="offset"
         operator="over"
         result="composite2"
         id="feComposite2947" />
    </filter>
  </defs>
  <metadata
     id="metadata5">
    <rdf:RDF>
      <cc:Work
         rdf:about="">
        <dc:format>image/svg+xml</dc:format>
        <dc:type
           rdf:resource="http://purl.org/dc/dcmitype/StillImage" />
      </cc:Work>
    </rdf:RDF>
  </metadata>
  <g
     id="g3564"
     transform="matrix(0.76517019,0,0,0.76517019,-51.660188,-42.892218)">
    <path
       id="path871"
       style="fill:#ff1999;fill-opacity:1;stroke:none;stroke-width:0.25551px;stroke-linecap:butt;stroke-linejoin:miter;stroke-opacity:1"
       d="m 159.59066,103.82924 c 14.99116,0.64148 12.92677,17.69491 2.96101,19.20702 16.93678,2.36528 9.15018,21.4697 1.70316,21.06358 10.64644,11.65275 0.0968,26.02163 -12.70168,19.21259 2.90666,10.61599 -13.74135,16.18912 -17.34781,5.58646 -5.9185,17.7452 -21.96429,11.1921 -21.85763,2.91495 -5.40706,9.44335 -17.811467,3.55048 -17.760227,-3.82699 -9.48579,5.41893 -21.331274,-6.09625 -14.69728,-14.86733 -12.918854,-0.31192 -12.613544,-16.263 -2.94088,-18.52235 2.24638,0.91287 -0.91387,4.11833 -0.0264,-0.16724 -13.374104,-4.32888 -11.146094,-18.82497 -1.69642,-18.68607 -4.509104,-6.34808 2.8269,-15.13412 10.7949,-14.23361" />
    <path
       id="path833"
       style="fill:url(#linearGradient1287);fill-opacity:1;stroke:none;stroke-width:0.264583px;stroke-linecap:butt;stroke-linejoin:miter;stroke-opacity:1;filter:url(#filter2949)"
       d="M 152.51767,103.85791 C 151.75029,81.0197 138.01643,62.17493 120.09727,62.12108 94.720993,62.04478 82.401383,95.31936 88.545293,111.45584 c 17.672797,13.96638 58.792787,5.47239 63.972377,-7.59793 z" />
    <circle
       style="fill:#676767;fill-opacity:1;stroke:none;stroke-width:3.43958;stroke-opacity:1"
       id="path885"
       cx="111.76191"
       cy="89.683678"
       r="2.5224922" />
    <circle
       style="fill:#676767;fill-opacity:1;stroke:none;stroke-width:3.43958;stroke-opacity:1"
       id="path887"
       cx="137.11961"
       cy="90.613029"
       r="2.9207804" />
    <path
       id="path889"
       style="fill:none;stroke:#676767;stroke-width:0.948181;stroke-linecap:round;stroke-linejoin:round;stroke-miterlimit:4;stroke-dasharray:none;stroke-opacity:1"
       d="m 120.21103,91.51671 c -0.25275,1.95289 0.36798,3.81019 2.1354,4.17244 2.62743,0.53852 3.65985,-1.30863 4.57608,-3.44058" />
    <path
       id="path1651"
       style="fill:#ff6fbf;fill-opacity:1;stroke:none;stroke-width:0.809318px;stroke-linecap:butt;stroke-linejoin:miter;stroke-opacity:1"
       d="m 301.60352,449.5 c -30.5149,-0.43155 -37.71114,44.60524 5.47656,58.05469 -0.0457,0.21203 -0.0607,0.36812 -0.0996,0.56836 -31.05057,7.176 -31.95004,56.53285 9.68359,57.5 -21.42247,27.25096 16.82743,63.02757 47.45899,46.1914 -0.16555,22.92117 39.89105,41.22832 57.35156,11.88867 -0.3225,24.08701 45.1125,43.47423 66.57617,0.53126 -20.50406,7.64113 -42.99588,-5.58274 -42.77148,-20.95313 -17.01914,26.23332 -56.06373,9.86156 -55.90235,-10.63281 -29.85747,15.05367 -67.14286,-16.93493 -46.26172,-41.30078 -40.58216,-0.86473 -39.70285,-44.99695 -9.43554,-51.41211 0.038,-0.17834 0.0514,-0.31718 0.0957,-0.50586 -33.24426,-9.49675 -35.85647,-36.6044 -20.83789,-47.39649 -3.79088,-0.84926 -7.52035,-1.66885 -11.33398,-2.5332 z m 212.4746,145.68359 c -0.13247,0.35056 -0.27253,0.68555 -0.4082,1.0293 0.20529,-0.19536 0.39274,-0.38536 0.5957,-0.58008 -0.0614,-0.15105 -0.12834,-0.29573 -0.1875,-0.44922 z"
       transform="scale(0.26458333)" />
    <path
       id="path862"
       style="fill:#ffb7df;fill-opacity:1;stroke:none;stroke-width:0.999999px;stroke-linecap:butt;stroke-linejoin:miter;stroke-opacity:1"
       d="m 577.39648,383.77734 -1.41601,0.0781 c 0.20806,2.87492 0.36702,5.76633 0.46484,8.67773 -19.5764,49.39964 -174.99033,81.50312 -241.78515,28.7168 -2.72997,-7.17003 -4.48419,-15.2421 -5.31836,-23.89258 l -2.4668,0.13477 c -52.29012,58.32079 175.372,120.21913 263.9043,7.44336 1.20559,-14.9895 1.24509,-19.48055 -13.38282,-21.15821 z"
       transform="scale(0.26458333)" />
  </g>
</svg>
