<?xml version="1.0" encoding="UTF-8"?>
<svg xmlns="http://www.w3.org/2000/svg" viewBox="0 0 110 110" width="110" height="110">
  <defs>
    <linearGradient id="pyBlue" x1="12.959%" y1="12.039%" x2="79.639%" y2="78.201%">
      <stop offset="0%" stop-color="#387EB8"/>
      <stop offset="100%" stop-color="#366994"/>
    </linearGradient>
    <linearGradient id="pyYellow" x1="19.128%" y1="20.579%" x2="90.742%" y2="88.429%">
      <stop offset="0%" stop-color="#FFC836"/>
      <stop offset="100%" stop-color="#FFD43B"/>
    </linearGradient>
  </defs>
  <g transform="translate(5,5)">
    <path d="M49.626 0C24.762 0 26.314 10.786 26.314 10.786l.028 11.178h23.747v3.358H15.937S0 23.253 0 48.518c0 25.266 13.926 24.37 13.926 24.37h8.312V61.393s-.449-13.926 13.697-13.926h23.596s13.258.214 13.258-12.81V12.707S75.235 0 49.626 0zM36.192 7.332a4.278 4.278 0 110 8.557 4.278 4.278 0 010-8.557z" fill="url(#pyBlue)"/>
    <path d="M50.674 100.296c24.864 0 23.312-10.786 23.312-10.786l-.028-11.178H50.211v-3.358h34.153S100.3 77.043 100.3 51.778c0-25.266-13.926-24.37-13.926-24.37h-8.312v11.496s.449 13.926-13.697 13.926H40.769s-13.258-.214-13.258 12.81v21.95s-2.017 12.706 23.163 12.706zM64.109 92.964a4.278 4.278 0 110-8.557 4.278 4.278 0 010 8.557z" fill="url(#pyYellow)"/>
  </g>
</svg>
