<?xml version="1.0" encoding="UTF-8"?>
<svg xmlns="http://www.w3.org/2000/svg" width="74" height="73" viewBox="0 0 74 73" fill="none">
  <path id="Logo" fill-rule="evenodd" clip-rule="evenodd" d="M71.3235 50.2794L69.5065 47.3175C68.4997 48.2929 67.2673 48.8502 66.0656 48.8502C65.5139 48.8502 65.2228 48.7813 64.0212 48.4678C62.8208 48.1182 61.9761 48.0138 61.0358 48.0138C56.7832 48.0138 54.0249 50.3838 54.0249 54.043C54.0249 56.6909 55.1937 58.3291 57.5956 58.9912C56.6218 59.2354 55.5503 59.7583 55.0637 60.3512C54.7066 60.7692 54.5449 61.3257 54.5449 61.9875C54.5449 62.5466 54.6748 63.0339 54.8688 63.452C55.0955 63.8353 55.4204 64.1491 55.8104 64.3226C56.5883 64.6364 57.8546 64.8453 59.8019 64.8809C60.8086 64.8809 61.4252 64.9158 61.6523 64.9158C62.8535 64.9856 63.4696 65.1936 63.9246 65.4382C64.3785 65.7173 64.7031 66.3447 64.7031 67.041C64.7031 67.7383 64.2812 68.4352 63.6647 68.8536C63.0807 69.2717 62.1389 69.4463 60.9057 69.4463C58.893 69.4463 57.7897 68.6792 57.7897 67.2501C57.7897 66.6227 57.8546 66.4829 57.9844 66.1H53.96C53.798 66.448 53.5713 66.936 53.5713 67.9125C53.5713 69.1325 54.0249 70.1775 54.9338 71.0837C56.4273 72.5826 58.8614 73 61.2305 73C63.8263 73 66.3264 72.3735 67.7862 70.6997C68.6944 69.6543 69.1164 68.5045 69.1164 67.0065C69.1164 65.4036 68.6627 64.1835 67.6891 63.2082C66.5195 62.0572 65.1901 61.639 62.6586 61.6046L60.321 61.5701C59.8671 61.5701 59.608 61.3966 59.608 61.1521C59.608 60.6639 60.2235 60.2454 61.3273 59.6885C61.6523 59.723 61.782 59.723 61.9761 59.723C65.5139 59.723 68.1108 57.4929 68.1108 54.4266C68.1108 53.2412 67.7862 52.3359 67.1363 51.4996C67.6892 51.5685 67.8509 51.6039 68.273 51.6039C69.4733 51.6039 70.382 51.2203 71.3235 50.2794ZM74 32.9837C74 30.9797 72.7887 29.1231 70.7287 27.5979C70.9146 28.2103 71.0189 28.8328 71.0189 29.4676C71.0189 35.2061 63.164 40.1161 52.028 42.1491C53.2875 42.2939 54.5941 42.3731 55.9377 42.3731C65.9135 42.3731 74 38.1691 74 32.9837ZM67.5807 29.8624C67.5807 35.3696 55.5047 39.8334 40.6079 39.8334C25.7117 39.8334 13.6366 35.3696 13.6366 29.8624C13.6366 28.1278 14.8348 26.4974 16.9417 25.0775C16.6159 25.6864 16.4432 26.3164 16.4432 26.9619C16.4432 32.0492 27.0644 36.1732 40.1671 36.1732C53.2701 36.1732 63.8923 32.0492 63.8923 26.9619C63.8923 26 63.5096 25.0711 62.804 24.1982C65.8129 25.8075 67.5807 27.7585 67.5807 29.8624ZM16.6166 21.0472C11.1757 22.4033 7.47979 25.0591 7.47979 28.1131C7.47979 30.0037 8.8974 31.7396 11.2646 33.111C10.5536 31.9505 10.1666 30.7295 10.1666 29.4676C10.1666 26.2911 12.5785 23.3697 16.6166 21.0472ZM69.8231 12.0934C69.3227 11.479 68.6371 11.481 68.0964 11.9806C67.5741 12.6868 67.5592 13.1893 67.9298 13.5794C68.3252 13.9965 69.1451 14.356 69.7353 13.8781C70.3258 13.3982 70.3237 12.7076 69.8231 12.0934ZM62.9695 14.3829C64.6579 11.9811 67.8881 16.2283 64.2266 16.8195C62.7615 17.0562 60.2874 18.691 59.2258 21.2715C57.7266 25.0902 58.3754 27.9167 55.7981 29.6166C50.3021 33.2389 33.3699 34.6058 26.079 29.9589C20.3637 26.3166 22.3248 20.5419 5.97699 7.81541C3.83914 6.15214 6.37108 4.3862 7.97238 5.51648C9.5735 6.64805 8.10792 6.94847 11.3374 10.2452C17.8607 16.9013 17.795 10.9173 18.8252 13.1807C20.9914 17.9405 25.7701 22.7342 25.7701 22.7342C30.5557 25.9118 34.3775 26.6063 41.4368 21.734C45.9136 18.6443 44.0823 26.6482 55.0614 20.8798C59.0653 18.7755 58.8989 20.1706 62.9695 14.3829H62.9695ZM15.3326 8.2769C15.056 7.87971 14.2336 7.69692 13.6835 8.26154C13.1343 8.82611 13.4045 9.38433 13.722 9.71984C14.1777 10.2004 14.9499 10.1609 15.4092 9.89978C15.8706 9.63933 15.7736 8.91037 15.3326 8.2769ZM3.98286 3.8589C4.34144 3.45734 4.79427 2.69766 4.01642 1.24353C3.44872 0.179062 1.5714 -0.255833 0.908835 0.150092C0.248406 0.557382 -0.559567 2.12915 0.54678 2.82079C1.97237 3.7132 2.90683 5.06182 3.98286 3.8589ZM71.6671 1.88402C71.165 1.13997 70.1053 1.27468 69.0564 2.05125C68.0069 2.82691 68.2054 4.30171 68.5524 4.6451C69.1609 5.24897 70.7832 4.84129 71.1611 4.40878C72.1347 3.29803 72.1687 2.62791 71.6671 1.88402ZM65.6279 6.60727C67.1302 5.88467 69.4929 8.23343 66.0736 9.99656C61.1868 12.5178 60.6688 15.6458 57.5815 17.6347C52.3894 20.9799 53.978 17.7698 45.6259 16.5549C42.4095 16.0868 41.3748 19.7471 38.8637 18.6893C33.075 16.2503 29.0318 16.7172 25.2824 19.8281C23.9252 19.2174 22.505 16.8599 21.9485 15.9146C23.4685 14.3959 22.8548 11.8577 21.9962 10.4659C21.139 9.07409 20.1002 9.46906 18.9601 8.18847C17.8189 6.90964 19.3901 3.57166 20.8514 6.13592C26.3261 15.7443 29.9205 11.7476 34.3925 11.1744C38.6843 10.6248 42.4781 13.0093 43.6412 6.25507C43.8325 5.15111 44.8868 4.88691 44.9943 6.71258C45.1015 8.53954 45.7735 12.988 48.1333 13.5621C50.4925 14.1354 52.3657 12.9984 52.9182 12.3673C53.4708 11.7362 53.7601 11.8279 54.0025 13.394C54.2461 14.9614 54.8443 17.1258 58.1573 14.7147C64.9333 9.78285 62.9944 7.87468 65.6279 6.60727ZM45.488 2.09382C45.51 1.30451 45.1585 0.809726 44.3952 0.837565C43.6322 0.865871 43.3586 1.25757 43.3834 2.01943C43.5737 3.46152 43.8114 3.42705 44.3176 3.56024C44.8238 3.69366 45.4661 2.88244 45.488 2.09382ZM18.3229 3.44923C18.6553 3.02179 18.6871 2.45916 18.2461 1.82503C17.9699 1.42826 16.6775 1.15619 16.1289 1.72057C15.5787 2.28558 16.0792 3.17295 16.5073 3.30747C17.3 3.55653 17.6522 4.31006 18.3229 3.44923ZM63.6324 54.0774C63.6324 55.7157 62.6906 56.6211 60.9706 56.6211C59.445 56.6211 58.4064 55.8902 58.4064 54.0774C58.4064 52.4048 59.3479 51.4291 61.0033 51.4291C62.6586 51.4291 63.6324 52.4048 63.6324 54.0774ZM51.169 64.0793C52.5985 62.3361 53.2462 60.2454 53.2462 57.1791C53.2462 54.2866 52.6623 52.3358 51.3321 50.662C49.9035 48.8502 48.0543 47.9795 45.6842 47.9795C41.2059 47.9795 38.2199 51.7072 38.2199 57.3191C38.2199 62.929 41.173 66.5535 45.6842 66.5535C48.2482 66.5535 49.9035 65.6129 51.169 64.0793ZM48.5082 57.1446C48.5082 61.3616 47.6975 63.1726 45.8152 63.1726C44.9704 63.1726 43.9977 62.6856 43.6076 61.7101C43.251 60.8025 43.055 59.2691 43.055 57.214C43.055 55.4366 43.2179 54.1824 43.51 53.2412C43.8666 52.1263 44.7104 51.4291 45.7491 51.4291C46.5279 51.4291 47.2093 51.7776 47.6316 52.3703C48.2159 53.1712 48.5082 54.7393 48.5082 57.1446ZM7.11663 69.3752L9.22478 71.8844C11.2701 71.0481 13.8341 69.1674 14.4829 66.2055C14.71 65.229 14.8068 64.6017 14.8068 61.4643V42.0753H10.1994V61.9875C10.1994 64.6017 10.1022 65.5771 9.7447 66.448C9.32305 67.4242 8.28341 68.6087 7.11663 69.3752ZM17.7636 42.0202H17.2903V66.17H21.8338V55.4708H27.5785V51.4996H21.8338V45.9575H29.0058L29.2842 43.849C24.9745 43.5128 21.0579 42.8054 17.7636 42.0202ZM32.8684 47.9095C33.2582 48.6422 33.4843 49.4431 33.5499 50.454C34.1671 49.5476 35.2057 48.6066 36.0165 48.1875C36.3744 48.0137 36.9578 47.9095 37.4448 47.9095C38.0936 47.9095 38.3855 47.9795 39.067 48.2929L37.8664 52.4048C37.4448 52.1614 37.0879 52.0565 36.6011 52.0565C35.6273 52.0565 34.7509 52.5447 33.9393 53.5548V66.17H29.5907V54.251C29.5907 51.8465 29.3308 50.0347 28.974 49.0251L32.8684 47.9095Z" fill="#40BE46"></path>
</svg>
